
<!-- Generator: visioncortex VTracer 0.6.4 -->
<svg version="1.1" xmlns="http://www.w3.org/2000/svg" viewBox="0 0 405 179" preserveAspectRatio="xMidYMid meet">
<path d="M0 0 C133.65 0 267.3 0 405 0 C405 59.07 405 118.14 405 179 C271.35 179 137.7 179 0 179 C0 119.93 0 60.86 0 0 Z " fill="#010101" transform="translate(0,0)"/>
<path d="M0 0 C7.759 6.508 11.264 15.047 13.125 24.812 C13.474 29.323 13.457 33.791 13.375 38.312 C13.37 39.478 13.365 40.643 13.359 41.844 C13.281 50.346 13.281 50.346 12.125 53.812 C11.465 53.812 10.805 53.812 10.125 53.812 C10.084 54.596 10.043 55.38 10 56.188 C7.905 64.868 2.428 71.81 -4.875 76.812 C-15.748 82.867 -30.338 83.905 -42.375 80.688 C-52.573 76.954 -59.822 69.827 -65.812 60.938 C-70.672 46.644 -69.899 24.351 -63.75 10.625 C-58.993 1.887 -52.137 -3.667 -42.875 -7.188 C-28.088 -11.31 -12.396 -8.632 0 0 Z " fill="#F8F8F8" transform="translate(366.875,44.1875)"/>
<path d="M0 0 C49.729 0 49.729 0 57.445 7.383 C62.747 13.169 62.421 20.31 62.336 27.805 C61.837 32.552 60.343 35.617 57 39 C50.591 44 50.591 44 47 44 C47.763 44.763 48.526 45.526 49.312 46.312 C50.199 47.199 51.086 48.086 52 49 C52.5 49.419 53 49.837 53.515 50.269 C55.634 52.739 56.39 55.319 57.445 58.391 C57.661 59.013 57.876 59.636 58.098 60.278 C58.551 61.595 58.999 62.913 59.444 64.232 C60.119 66.233 60.81 68.228 61.504 70.223 C63.556 76.218 65.095 81.663 66 88 C60.06 88 54.12 88 48 88 C46.869 84.689 45.745 81.377 44.625 78.062 C44.308 77.136 43.991 76.21 43.664 75.256 C41.947 70.159 40.491 65.171 39.548 59.873 C38.611 56.669 36.56 54.998 34 53 C28.587 51.196 22.691 51.407 17 51 C17 63.21 17 75.42 17 88 C11.39 88 5.78 88 0 88 C0 58.96 0 29.92 0 0 Z " fill="#F6F6F6" transform="translate(163,37)"/>
<path d="M0 0 C19.47 0 38.94 0 59 0 C59 4.62 59 9.24 59 14 C45.14 14 31.28 14 17 14 C17 20.93 17 27.86 17 35 C28.88 35 40.76 35 53 35 C53 39.62 53 44.24 53 49 C41.45 49 29.9 49 18 49 C18 56.92 18 64.84 18 73 C31.86 73 45.72 73 60 73 C60 77.95 60 82.9 60 88 C40.2 88 20.4 88 0 88 C0 58.96 0 29.92 0 0 Z " fill="#F8F8F8" transform="translate(99,37)"/>
<path d="M0 0 C5.007 4.168 8.287 7.41 9.125 13.977 C7.36 15.151 5.588 16.316 3.812 17.477 C2.826 18.126 1.84 18.776 0.824 19.445 C-1.875 20.977 -1.875 20.977 -4.875 20.977 C-6.469 19.096 -7.739 17.085 -9.082 15.02 C-12.381 11.261 -15.782 10.111 -20.68 9.508 C-22.036 9.473 -23.393 9.464 -24.75 9.477 C-25.457 9.483 -26.165 9.489 -26.894 9.496 C-32.744 9.701 -36.811 10.697 -40.875 14.977 C-46.504 22.155 -47.075 28.215 -47.125 37.102 C-47.146 38.001 -47.166 38.901 -47.188 39.828 C-47.239 48.816 -45.702 56.625 -39.668 63.504 C-33.881 68.257 -28.521 68.496 -21.301 68.328 C-16.82 67.868 -13.371 66.864 -9.875 63.977 C-8.012 61.376 -8.012 61.376 -6.875 58.977 C-6.215 58.977 -5.555 58.977 -4.875 58.977 C-4.545 56.997 -4.215 55.017 -3.875 52.977 C1.831 53.405 5.536 55.82 10.125 58.977 C9.27 66.422 5.526 71.839 0.059 76.883 C-9.856 84.559 -21.685 85.074 -33.875 83.977 C-44.546 81.847 -52.479 76.682 -58.875 67.977 C-67.465 54.586 -68.535 37.744 -65.32 22.312 C-62.306 12.221 -56.262 3.907 -47.254 -1.637 C-33.586 -8.846 -12.815 -9.019 0 0 Z " fill="#F7F7F7" transform="translate(86.875,42.0234375)"/>
<path d="M0 0 C0.33 0 0.66 0 1 0 C1 29.04 1 58.08 1 88 C0.67 88 0.34 88 0 88 C-0.061 86.735 -0.121 85.471 -0.184 84.168 C-0.268 82.508 -0.353 80.848 -0.438 79.188 C-0.477 78.354 -0.516 77.521 -0.557 76.662 C-0.599 75.86 -0.64 75.057 -0.684 74.23 C-0.739 73.123 -0.739 73.123 -0.795 71.993 C-0.948 69.793 -0.948 69.793 -2 67 C-2 66.01 -2 65.02 -2 64 C-3.413 63.182 -4.831 62.371 -6.25 61.562 C-7.039 61.11 -7.828 60.658 -8.641 60.191 C-10.788 59.107 -12.652 58.469 -15 58 C-15.33 59.98 -15.66 61.96 -16 64 C-16.66 64 -17.32 64 -18 64 C-18.144 64.722 -18.289 65.444 -18.438 66.188 C-20.908 70.635 -24.24 72.391 -29 74 C-35.352 74.905 -41.765 75.236 -47.5 72 C-54.068 66.997 -57.646 61.144 -59 53 C-61.018 30.439 -61.018 30.439 -55 22 C-52.861 19.652 -50.663 17.729 -48 16 C-47.141 15.441 -47.141 15.441 -46.266 14.871 C-40.332 12.59 -31.239 12.861 -25.312 14.945 C-21.44 17.278 -18.472 20.189 -16 24 C-16 24.66 -16 25.32 -16 26 C-14.392 25.237 -12.789 24.464 -11.188 23.688 C-10.294 23.258 -9.401 22.829 -8.48 22.387 C-5.419 20.675 -3.569 19.138 -2 16 C-1.67 16.33 -1.34 16.66 -1 17 C-0.67 11.39 -0.34 5.78 0 0 Z " fill="#030303" transform="translate(98,37)"/>
<path d="M0 0 C1.987 0.94 3.658 1.959 5.414 3.277 C6.868 4.36 6.868 4.36 8.352 5.465 C11.147 9.277 11.303 12.644 11.414 17.277 C12.074 17.277 12.734 17.277 13.414 17.277 C14.142 44.555 14.142 44.555 8.289 52.777 C1.735 58.476 -4.704 60.083 -13.359 59.789 C-19.281 58.85 -24.233 56.201 -28.02 51.496 C-29.086 49.715 -29.086 49.715 -30.586 46.277 C-30.94 45.487 -31.294 44.697 -31.659 43.883 C-35.059 34.327 -34.094 18.445 -29.926 9.309 C-27.68 5.905 -25.027 3.443 -21.586 1.277 C-21.003 0.905 -20.421 0.532 -19.82 0.148 C-14.114 -2.076 -5.869 -1.64 0 0 Z " fill="#040404" transform="translate(348.5859375,51.72265625)"/>
<path d="M0 0 C3.3 0 6.6 0 10 0 C15.29 27.465 15.29 27.465 15.562 36.938 C15.801 44.384 17.064 51.419 18.629 58.697 C19.728 63.925 20.192 68.656 20 74 C20.66 74 21.32 74 22 74 C22.241 73.334 22.482 72.667 22.73 71.98 C24.319 68.25 26.291 64.822 28.312 61.312 C31.74 55.299 35.012 49.247 38 43 C38.66 43 39.32 43 40 43 C40.08 42.328 40.16 41.657 40.242 40.965 C41.228 37.109 43.12 33.959 45.125 30.562 C48.176 25.283 51.072 19.978 53.75 14.5 C54.318 13.373 54.887 12.247 55.473 11.086 C56.407 9.199 57.3 7.29 58.121 5.352 C59.237 3.021 59.953 1.585 62 0 C66.083 -0.654 69.905 -0.47 74 0 C72.909 2.878 71.871 5.19 70.125 7.75 C67.572 11.654 65.793 15.707 64 20 C63.34 20 62.68 20 62 20 C61.867 20.789 61.867 20.789 61.73 21.594 C60.743 24.847 59.041 27.598 57.312 30.5 C54.083 36.023 51.113 41.617 48.324 47.379 C46.998 50.003 45.519 52.484 44 55 C43.318 56.346 42.65 57.7 42 59.062 C40.571 61.975 38.962 64.414 37 67 C36.67 67.825 36.34 68.65 36 69.5 C35 72 35 72 33.562 73.875 C30.95 77.428 29.56 81.64 27.887 85.703 C26 88 26 88 22.426 88.488 C21.054 88.455 19.682 88.396 18.312 88.312 C17.611 88.29 16.909 88.267 16.186 88.244 C14.456 88.185 12.728 88.096 11 88 C10.905 87.127 10.81 86.254 10.712 85.355 C8.829 68.241 6.732 51.225 3.751 34.263 C-0.378 10.761 -0.378 10.761 0 0 Z " fill="#EFEFEF" transform="translate(237,37)"/>
<path d="M0 0 C3.197 -0.062 6.394 -0.124 9.688 -0.188 C11.185 -0.228 11.185 -0.228 12.714 -0.27 C17.61 -0.316 21.068 -0.282 25 3 C27.794 7.39 27.706 12.967 27 18 C24.809 21.098 23.589 21.804 20 23 C18.446 23.081 16.888 23.108 15.332 23.098 C14.527 23.095 13.723 23.093 12.894 23.09 C11.369 23.076 11.369 23.076 9.812 23.062 C4.955 23.032 4.955 23.032 0 23 C0 15.41 0 7.82 0 0 Z " fill="#010101" transform="translate(181,51)"/>
<path d="M0 0 C1.32 0 2.64 0 4 0 C4.205 0.843 4.41 1.686 4.621 2.555 C4.891 3.65 5.16 4.746 5.438 5.875 C5.838 7.511 5.838 7.511 6.246 9.18 C6.879 11.925 6.879 11.925 8 14 C8.615 12.969 8.615 12.969 9.242 11.918 C10.05 10.566 10.05 10.566 10.875 9.188 C11.409 8.294 11.942 7.401 12.492 6.48 C13.619 4.627 14.797 2.805 16 1 C16.99 1 17.98 1 19 1 C18.488 7.029 17.93 13.02 17 19 C16.01 19 15.02 19 14 19 C14 16.36 14 13.72 14 11 C13.34 11 12.68 11 12 11 C11.711 11.763 11.423 12.526 11.125 13.312 C10 16 10 16 8 19 C7.01 19 6.02 19 5 19 C4.01 15.7 3.02 12.4 2 9 C1.34 12.3 0.68 15.6 0 19 C-0.99 19 -1.98 19 -3 19 C-2.542 12.449 -1.79 6.325 0 0 Z " fill="#9D9D9D" transform="translate(222,141)"/>
<path d="M0 0 C1.875 1.375 1.875 1.375 3 3 C3 3.66 3 4.32 3 5 C2.01 5 1.02 5 0 5 C-0.33 4.34 -0.66 3.68 -1 3 C-2.98 3 -4.96 3 -7 3 C-6.636 5.704 -6.319 6.744 -4.152 8.484 C-3.056 9.111 -3.056 9.111 -1.938 9.75 C-1.204 10.178 -0.471 10.606 0.285 11.047 C0.851 11.361 1.417 11.676 2 12 C1.25 16.75 1.25 16.75 -1 19 C-2.875 19.266 -2.875 19.266 -5 19.25 C-6.052 19.258 -6.052 19.258 -7.125 19.266 C-9 19 -9 19 -11 17 C-11 16.01 -11 15.02 -11 14 C-10.01 14 -9.02 14 -8 14 C-7.67 14.66 -7.34 15.32 -7 16 C-5.35 16 -3.7 16 -2 16 C-1.67 14.68 -1.34 13.36 -1 12 C-1.928 11.711 -2.856 11.423 -3.812 11.125 C-7 10 -7 10 -10 8 C-10.438 5.562 -10.438 5.562 -10 3 C-7.038 -0.304 -4.293 -0.548 0 0 Z " fill="#C8C8C8" transform="translate(275,141)"/>
<path d="M0 0 C3.96 0 7.92 0 12 0 C12 0.99 12 1.98 12 3 C9.36 3 6.72 3 4 3 C3.34 4.98 2.68 6.96 2 9 C4.31 9 6.62 9 9 9 C9 9.66 9 10.32 9 11 C6.69 11 4.38 11 2 11 C1.67 13.64 1.34 16.28 1 19 C0.01 19 -0.98 19 -2 19 C-1.858 16.958 -1.711 14.916 -1.562 12.875 C-1.481 11.738 -1.4 10.601 -1.316 9.43 C-1.023 6.246 -0.569 3.145 0 0 Z " fill="#9B9B9B" transform="translate(125,141)"/>
<path d="M0 0 C0.33 0 0.66 0 1 0 C1 29.04 1 58.08 1 88 C0.67 88 0.34 88 0 88 C-0.061 86.735 -0.121 85.471 -0.184 84.168 C-0.268 82.508 -0.353 80.848 -0.438 79.188 C-0.496 77.937 -0.496 77.937 -0.557 76.662 C-0.599 75.86 -0.64 75.057 -0.684 74.23 C-0.739 73.123 -0.739 73.123 -0.795 71.993 C-0.948 69.793 -0.948 69.793 -2 67 C-2 65.68 -2 64.36 -2 63 C-1.34 63 -0.68 63 0 63 C0 42.21 0 21.42 0 0 Z " fill="#191919" transform="translate(98,37)"/>
<path d="M0 0 C1.109 1.777 1.109 1.777 2 4 C1.059 5.915 0.107 7.825 -0.914 9.698 C-4.889 18.12 -4.252 28.108 -4.125 37.188 C-4.116 38.426 -4.107 39.664 -4.098 40.939 C-4.074 43.96 -4.042 46.98 -4 50 C-4.33 50 -4.66 50 -5 50 C-5.837 46.357 -6.129 42.988 -6.133 39.254 C-6.134 38.169 -6.135 37.084 -6.137 35.967 C-6.133 34.843 -6.129 33.72 -6.125 32.562 C-6.129 31.443 -6.133 30.323 -6.137 29.17 C-6.135 28.084 -6.134 26.998 -6.133 25.879 C-6.132 24.895 -6.131 23.911 -6.129 22.897 C-5.994 19.863 -5.557 16.982 -5 14 C-5.99 14.495 -5.99 14.495 -7 15 C-6.34 13.02 -5.68 11.04 -5 9 C-4.34 9 -3.68 9 -3 9 C-2.814 7.886 -2.814 7.886 -2.625 6.75 C-2.045 4.199 -1.263 2.273 0 0 Z " fill="#838383" transform="translate(304,48)"/>
<path d="M0 0 C0.99 0 1.98 0 3 0 C2.34 5.61 1.68 11.22 1 17 C2.65 17 4.3 17 6 17 C6 17.66 6 18.32 6 19 C3.03 19 0.06 19 -3 19 C-3.274 12.841 -2.422 6.999 -1 1 C-0.67 0.67 -0.34 0.34 0 0 Z " fill="#B6B6B6" transform="translate(189,141)"/>
<path d="M0 0 C0.66 0 1.32 0 2 0 C1.859 2.25 1.712 4.5 1.562 6.75 C1.481 8.003 1.4 9.256 1.316 10.547 C1.075 13.183 0.757 15.48 0 18 C-0.99 18 -1.98 18 -3 18 C-3.428 11.585 -1.857 6.114 0 0 Z " fill="#B7B7B7" transform="translate(161,142)"/>
<path d="M0 0 C0.99 0 1.98 0 3 0 C2.886 1.813 2.759 3.626 2.625 5.438 C2.555 6.447 2.486 7.456 2.414 8.496 C2.277 9.322 2.141 10.149 2 11 C1.01 11.495 1.01 11.495 0 12 C-0.217 10.608 -0.217 10.608 -0.438 9.188 C-0.921 5.993 -0.921 5.993 -2 3 C-1.34 2.01 -0.68 1.02 0 0 Z M-1 12 C-0.67 12 -0.34 12 0 12 C0 13.98 0 15.96 0 18 C-0.66 17.67 -1.32 17.34 -2 17 C-1.67 15.35 -1.34 13.7 -1 12 Z " fill="#DBDBDB" transform="translate(238,142)"/>
<path d="M0 0 C1.875 1.375 1.875 1.375 3 3 C3 3.66 3 4.32 3 5 C2.01 5 1.02 5 0 5 C-0.33 4.34 -0.66 3.68 -1 3 C-2.98 3 -4.96 3 -7 3 C-7.33 3.99 -7.66 4.98 -8 6 C-8.66 6.66 -9.32 7.32 -10 8 C-10.25 5.688 -10.25 5.688 -10 3 C-7.038 -0.304 -4.293 -0.548 0 0 Z " fill="#A8A8A8" transform="translate(275,141)"/>
<path d="M0 0 C3.3 1.98 6.6 3.96 10 6 C9.67 7.32 9.34 8.64 9 10 C8.443 9.35 8.443 9.35 7.875 8.688 C5.487 6.538 2.898 5.352 0 4 C0 2.68 0 1.36 0 0 Z " fill="#D9D9D9" transform="translate(266,146)"/>
<path d="M0 0 C0.33 0 0.66 0 1 0 C1 4.62 1 9.24 1 14 C0.01 14 -0.98 14 -2 14 C-1.859 12.229 -1.712 10.458 -1.562 8.688 C-1.481 7.701 -1.4 6.715 -1.316 5.699 C-1 3 -1 3 0 0 Z " fill="#A3A3A3" transform="translate(221,146)"/>
<path d="M0 0 C0.99 0 1.98 0 3 0 C3.33 1.98 3.66 3.96 4 6 C3.01 5.67 2.02 5.34 1 5 C0.67 6.32 0.34 7.64 0 9 C0 6.03 0 3.06 0 0 Z M-1 9 C-0.67 9 -0.34 9 0 9 C0 10.65 0 12.3 0 14 C-0.33 14 -0.66 14 -1 14 C-1 12.35 -1 10.7 -1 9 Z " fill="#ECECEC" transform="translate(222,142)"/>
<path d="M0 0 C3.3 0 6.6 0 10 0 C10 0.33 10 0.66 10 1 C7.36 1 4.72 1 2 1 C1.67 3.31 1.34 5.62 1 8 C0.34 7.67 -0.32 7.34 -1 7 C-0.67 4.69 -0.34 2.38 0 0 Z " fill="#DFDFDF" transform="translate(126,142)"/>
<path d="M0 0 C0.33 0 0.66 0 1 0 C0.67 3.63 0.34 7.26 0 11 C-0.33 11 -0.66 11 -1 11 C-1.222 9.544 -1.427 8.085 -1.625 6.625 C-1.741 5.813 -1.857 5.001 -1.977 4.164 C-1.984 3.45 -1.992 2.736 -2 2 C-1.34 1.34 -0.68 0.68 0 0 Z M1 6 C1.33 6 1.66 6 2 6 C2 7.98 2 9.96 2 12 C1.67 12 1.34 12 1 12 C1 10.02 1 8.04 1 6 Z " fill="#7F7F7F" transform="translate(237,148)"/>
<path d="M0 0 C2 3 2 3 2 5 C1.01 5.495 1.01 5.495 0 6 C-0.656 8.527 -0.656 8.527 -1 11 C-1.33 11 -1.66 11 -2 11 C-1.86 9.354 -1.713 7.708 -1.562 6.062 C-1.481 5.146 -1.4 4.229 -1.316 3.285 C-1 1 -1 1 0 0 Z M-5 11 C-2 12 -2 12 -2 12 Z " fill="#343434" transform="translate(224,149)"/>
<path d="M0 0 C0.66 0 1.32 0 2 0 C2 2.31 2 4.62 2 7 C2.66 7 3.32 7 4 7 C4 7.99 4 8.98 4 10 C3.01 10 2.02 10 1 10 C0.67 6.7 0.34 3.4 0 0 Z " fill="#D1D1D1" transform="translate(226,150)"/>
<path d="M0 0 C0.688 1.812 0.688 1.812 1 4 C-0.438 5.75 -0.438 5.75 -2 7 C-2.66 6.67 -3.32 6.34 -4 6 C-2.25 1.125 -2.25 1.125 0 0 Z " fill="#BDBDBD" transform="translate(276,153)"/>
<path d="M0 0 C0.99 0 1.98 0 3 0 C2.67 2.64 2.34 5.28 2 8 C1.67 8 1.34 8 1 8 C0.67 5.36 0.34 2.72 0 0 Z " fill="#949494" transform="translate(189,141)"/>
<path d="M0 0 C1.98 0 3.96 0 6 0 C6.66 1.32 7.32 2.64 8 4 C7.01 4 6.02 4 5 4 C4.67 3.34 4.34 2.68 4 2 C1.983 0.866 1.983 0.866 0 0 Z " fill="#DCDCDC" transform="translate(270,142)"/>
<path d="M0 0 C0.66 1.32 1.32 2.64 2 4 C0.68 5.32 -0.64 6.64 -2 8 C-1.477 5.237 -0.891 2.674 0 0 Z " fill="#404040" transform="translate(304,48)"/>
<path d="M0 0 C0.66 0.66 1.32 1.32 2 2 C2.66 1.34 3.32 0.68 4 0 C4.33 0.99 4.66 1.98 5 3 C4.01 3.99 3.02 4.98 2 6 C2 5.34 2 4.68 2 4 C1.34 4 0.68 4 0 4 C0 2.68 0 1.36 0 0 Z " fill="#AEAEAE" transform="translate(228,153)"/>
<path d="M0 0 C0.66 1.32 1.32 2.64 2 4 C1.34 4.66 0.68 5.32 0 6 C-0.66 5.67 -1.32 5.34 -2 5 C-2 4.34 -2 3.68 -2 3 C-1.34 3 -0.68 3 0 3 C0 2.01 0 1.02 0 0 Z " fill="#5C5C5C" transform="translate(301,54)"/>
<path d="M0 0 C0.99 0.33 1.98 0.66 3 1 C2.67 2.32 2.34 3.64 2 5 C1.34 3.35 0.68 1.7 0 0 Z " fill="#EAEAEA" transform="translate(273,151)"/>
</svg>